<svg xmlns="http://www.w3.org/2000/svg" width="142" height="81" viewBox="0 0 142 81">
  <g id="free-delivery" transform="translate(-1.074 401.77)">
    <path id="Path_56" data-name="Path 56" d="M84.378-401.473a4.2,4.2,0,0,0-1.253,1.11c-.585.777-.585.861-.668,28.678-.056,27.762-.056,27.873-.64,27.873a5.211,5.211,0,0,0-1.587.527,5.419,5.419,0,0,0-.807,9.3l1.086.861,4.4.083,4.427.083.306,1.5a14.6,14.6,0,0,0,3.2,6.163l1.309,1.471H91.367c-2.311,0-2.84.083-3.2.5-.585.639-.585,1.138-.028,1.943l.418.611H137.5c47.056,0,48.978-.028,49.4-.5a1.488,1.488,0,0,0,.028-2.11c-.334-.333-1.058-.444-3.23-.444h-2.784l1.309-1.444a13.1,13.1,0,0,0,3.063-5.636l.613-1.943,4.288-.139c4.483-.139,4.9-.25,6.154-1.582a5.407,5.407,0,0,0-1.5-8.717,5.211,5.211,0,0,0-1.587-.527c-.529,0-.557-.278-.64-10.772-.111-9.356-.195-10.938-.613-12.271a19.892,19.892,0,0,0-9.968-11.771c-3.982-1.916-5.43-2.11-15.648-2.11h-8.771l-.084-9.578-.084-9.578-.919-.888-.891-.916-35.306-.056C92.676-401.806,84.907-401.75,84.378-401.473Zm69.861,30.038v27.345H133.523c-17.848,0-20.744-.056-21.05-.416a16.74,16.74,0,0,0-4.817-2.887,14.2,14.2,0,0,0-13.449,2.332l-1.169.972h-7.3v-3.887h3.564c4.873,0,4.65.222,4.65-4.719,0-5.108.111-5-4.761-5H85.743V-398.78h68.5Zm23.389-5.552a20.454,20.454,0,0,1,3.2,1.36l1.671.861-8.743.083c-7.657.056-8.827.111-9.272.527-.473.416-.5,1.055-.5,7.857,0,5.941.084,7.5.39,7.94.39.5.891.527,12.669.611l12.279.083v13.575h-3.7c-3.369,0-3.787-.056-4.232-.555a13.39,13.39,0,0,0-4.733-2.776,13.866,13.866,0,0,0-13.142,2.221c-1.42,1.083-1.5,1.11-3.7,1.11H157.58v-33.647l9.272.111C174.649-377.514,176.347-377.4,177.628-376.987Zm9.328,7a16.858,16.858,0,0,1,2.283,7.079l.167,1.888H167.047v-5.08a37.384,37.384,0,0,1,.195-5.275c.084-.111,4.344-.194,9.439-.194h9.244Zm-96.2,17.3v1.666H85.743v-3.331h5.012Zm16.289,8.606a10.775,10.775,0,0,1,6.293,8,10.408,10.408,0,0,1-5.764,11.049c-1.5.722-1.893.805-4.566.805-2.645,0-3.091-.083-4.511-.777A10.407,10.407,0,0,1,92.7-336.205a10.551,10.551,0,0,1,7.212-8.217A11.486,11.486,0,0,1,107.043-344.089Zm69.61.25a10.519,10.519,0,0,1,4.232,15.13,10.673,10.673,0,0,1-15.064,2.637,10.463,10.463,0,0,1-1.949-14.8A10.5,10.5,0,0,1,176.653-343.84Zm-86.177,3.3a14.489,14.489,0,0,1-.557,1.86,10.4,10.4,0,0,0-.557,2.138c0,.472-.278.5-3.7.5-4.065,0-4.65-.194-5.151-1.61a2.465,2.465,0,0,1,1.114-2.832C82.429-340.786,90.476-340.841,90.476-340.536Zm69,.139c-.056.194-.334,1.249-.64,2.332l-.529,2.027H137.477c-20.716,0-20.827,0-20.827-.555a9.978,9.978,0,0,0-.557-2.138,16.7,16.7,0,0,1-.557-1.8c0-.139,9.912-.222,22.025-.222C154.49-340.73,159.557-340.647,159.474-340.4Zm34.638.389a2.257,2.257,0,0,1-.167,3.3c-.724.639-.975.666-4.427.666h-3.675l-.446-1.749c-.251-.944-.557-2-.668-2.36l-.223-.639,4.483.083C193.193-340.619,193.527-340.591,194.112-340.008Zm-35.418,8.467a15.891,15.891,0,0,0,3.23,6.274l1.281,1.444H111.8l1-1.055a14.681,14.681,0,0,0,3.481-6.191l.473-1.916h41.6Z" transform="translate(-54.857)"/>
    <path id="Path_57" data-name="Path 57" d="M150.255-182.552a6.584,6.584,0,0,0-3.794,7.253,6.821,6.821,0,0,0,2.9,4.407c1.032.7,1.395.781,3.571.781s2.538-.084,3.6-.781a6.683,6.683,0,0,0,2.817-7.141A6.663,6.663,0,0,0,150.255-182.552Zm3.905,2.929a3.261,3.261,0,0,1,2.12,3.068,3.278,3.278,0,0,1-4.854,3.1,3.41,3.41,0,0,1,.223-6.165A2.393,2.393,0,0,1,154.16-179.623Z" transform="translate(-104.807 -158.051)"/>
    <path id="Path_58" data-name="Path 58" d="M398.554-182.4a6.654,6.654,0,0,0-.753,11.855,5.284,5.284,0,0,0,3.208.837c4.045,0,6.583-2.538,6.611-6.583a4.942,4.942,0,0,0-.837-3.347,6.326,6.326,0,0,0-5.412-3.1A6.624,6.624,0,0,0,398.554-182.4Zm4.1,3.208a3.378,3.378,0,0,1,1.813,3.068,3.282,3.282,0,0,1-5.83,2.092,3.256,3.256,0,0,1,1.144-5.328A2.612,2.612,0,0,1,402.655-179.193Z" transform="translate(-283.91 -158.313)"/>
    <path id="Path_59" data-name="Path 59" d="M2.175-381.745a1.564,1.564,0,0,0-.5,2.706c.53.391,2.12.446,11.52.446,5.969,0,11.018-.112,11.186-.223a1.622,1.622,0,0,0-.167-2.845C23.681-381.94,2.984-382.024,2.175-381.745Z" transform="translate(-0.005 -14.315)"/>
    <path id="Path_60" data-name="Path 60" d="M22.294-349.665a1.925,1.925,0,0,0,.2,2.455,64.69,64.69,0,0,0,8.592.279c8.731,0,9.066-.056,9.094-1.478,0-1.59.028-1.59-9.122-1.59C24.86-350,22.545-349.916,22.294-349.665Z" transform="translate(-15.048 -37.4)"/>
    <path id="Path_61" data-name="Path 61" d="M1.528-318.5a1.5,1.5,0,0,0-.028,2.12c.363.391,1.813.446,11.66.446,12.274,0,11.967.056,11.967-1.59,0-1.478-.112-1.478-12.078-1.478C2.671-319,1.946-318.972,1.528-318.5Z" transform="translate(0 -59.796)"/>
    <path id="Path_62" data-name="Path 62" d="M22.52-287.5a1.631,1.631,0,0,0,.139,2.4c.53.391,1.813.446,8.4.446a60.5,60.5,0,0,0,8.285-.279,1.622,1.622,0,0,0,.167-2.845c-.167-.112-3.961-.223-8.424-.223C23.58-288,22.938-287.972,22.52-287.5Z" transform="translate(-15.134 -82.192)"/>
    <path id="Path_63" data-name="Path 63" d="M2.175-256.745a1.564,1.564,0,0,0-.5,2.706c.53.391,2.12.446,11.52.446,5.969,0,11.018-.112,11.186-.223a1.622,1.622,0,0,0-.167-2.845C23.681-256.94,2.984-257.024,2.175-256.745Z" transform="translate(-0.005 -104.648)"/>
  </g>
</svg>
