<svg xmlns="http://www.w3.org/2000/svg" width="91.617" height="82.83" viewBox="0 0 91.617 82.83">
  <g id="maintenance-_1_" transform="translate(-21.331 467.446)">
    <path id="Path_54" data-name="Path 54" d="M143.651-466.467a11.162,11.162,0,0,0-7.744,8.341,13.047,13.047,0,0,0-.135,2.813l.116,1.618-1.214,1.194c-1.31,1.291-1.483,1.31-2.312.385a4.734,4.734,0,0,0-5.047-.751,4.891,4.891,0,0,0-2.2,2.389c-.212.559-.289.6-1.214.6a4.024,4.024,0,0,0-3.1,1.175,4.465,4.465,0,0,0-1.445,3.333c0,1.06-.019,1.079-.674,1.329a4.507,4.507,0,0,0-2.5,5.7c.347.944.347.867,0,.867a3.363,3.363,0,0,0-1.214.925,4.227,4.227,0,0,0-1.329,3.853l.116,1.1-2.658,2.7c-2.08,2.1-2.716,2.87-2.89,3.467-.52,1.869-.193,2.639,2.138,5.028,2.061,2.119,3.082,2.774,4.315,2.774,1.252-.019,2.177-.616,4.508-2.967a27.047,27.047,0,0,1,2.35-2.235,13.482,13.482,0,0,1,1.734,1.291c4.142,3.333,8.669,5.432,12.387,5.76,1.214.116,1.426.193,2.08.809l.713.693-.963.982a3.9,3.9,0,0,0-1.079,1.6c-.135.616-.039.732,3.737,4.508,3.39,3.429,3.93,3.872,4.469,3.872s1.56-.944,10.133-9.516c8.341-8.341,9.516-9.593,9.516-10.094s-.539-1.117-3.814-4.392c-4.219-4.219-4.392-4.315-5.606-3.294l-.6.5-.5-1.079c-.732-1.6-1.021-3.7-1.214-8.746l-.173-4.508-.578-.944-.578-.925,1.368-.925a10.9,10.9,0,0,0,4.585-10.287c-.27-1.618-.713-2.812-1.194-3.063-.809-.443-1.175-.212-3.853,2.446l-2.658,2.62-1.387-.366-1.387-.366-.366-1.329-.366-1.329,2.62-2.639c2.235-2.273,2.6-2.716,2.6-3.236,0-1.291-1.156-1.792-4.334-1.888A10.858,10.858,0,0,0,143.651-466.467Zm3.063,2.562a17.183,17.183,0,0,1-1.753,1.869,14.12,14.12,0,0,0-1.907,2.158,6.223,6.223,0,0,0,.4,2.6c.809,3.082.848,3.178,1.792,3.506a46.643,46.643,0,0,0,4.739,1.271,13.931,13.931,0,0,0,2.215-1.926,19.908,19.908,0,0,1,2.1-1.926c.27,0-.019,1.946-.462,3.14a8.092,8.092,0,0,1-5.317,4.777,5.08,5.08,0,0,1-2.909-.193c-3.718-.848-5.644-.693-7.686.6l-.905.559-.732-.713a2.937,2.937,0,0,1-.751-.944,10.234,10.234,0,0,1,1.56-1.734,14.742,14.742,0,0,0,1.714-1.926,5.739,5.739,0,0,0-.1-1.811,7.922,7.922,0,0,1,4.238-8.572C144.363-463.866,146.713-464.329,146.713-463.9Zm-16.605,13.6a28.564,28.564,0,0,1,2.832,2.6l2.292,2.331-.25.713c-.751,2.081-1.021,2.755-1.156,2.755-.077,0-1.5-1.368-3.159-3.063-2.716-2.735-3.024-3.121-3.024-3.718a1.82,1.82,0,0,1,1.04-1.7A1.322,1.322,0,0,1,130.108-450.3Zm-5.394,3.467a76.111,76.111,0,0,1,7.725,7.879,1.665,1.665,0,0,1-1.676,2.254c-.636,0-.982-.289-4.488-3.795a45.883,45.883,0,0,1-4.045-4.334,1.207,1.207,0,0,1,.019-1.117A1.64,1.64,0,0,1,124.714-446.837Zm19.476.79c2.986.616,4.874,1.445,5.2,2.254a49.349,49.349,0,0,1,.385,5.066c.27,5.914.732,8.149,2.119,10.094l.385.52-5.914,5.914-5.933,5.914-.655-.674a5.322,5.322,0,0,0-3.564-1.637c-2.061,0-6.184-1.6-9.054-3.525a27.625,27.625,0,0,1-3.93-3.217c-.019-.058.289-.27.674-.482a4.487,4.487,0,0,0,2.119-2.716,2.78,2.78,0,0,1,.52-1.137c.135-.019.6-.154,1.06-.27a4.62,4.62,0,0,0,2.986-3.294c.1-.4.289-.539,1.079-.693l.944-.193.636.867a4.962,4.962,0,0,0,3.7,1.946c2.6,0,3.911-1.156,5.586-4.912a17,17,0,0,0,1.1-3.024,1.216,1.216,0,0,0-.5-.905c-1.156-.925-1.792-.366-3.256,2.87-1.252,2.774-1.6,3.179-2.851,3.179a1.982,1.982,0,0,1-1.869-1.888,41.194,41.194,0,0,1,3.1-8.669C139.528-446.2,141.416-446.644,144.19-446.047Zm-19.668,7.879c2.928,2.947,3.313,3.39,3.313,3.949a1.9,1.9,0,0,1-1.753,1.753c-.578,0-1-.366-3.968-3.333-3.217-3.217-3.333-3.352-3.333-4.1a1.377,1.377,0,0,1,.443-1.175C120.4-442.156,120.727-441.963,124.522-438.168Zm-3.352,5.49c1.926,1.965,2.235,2.35,2.235,2.89a1.917,1.917,0,0,1-1.753,1.753c-.539,0-.944-.308-2.928-2.273-2.119-2.1-2.292-2.331-2.292-3.005a1.678,1.678,0,0,1,2.08-1.7A15.72,15.72,0,0,1,121.17-432.678Zm-1.657,7.551c-.039.1-1.04,1.175-2.254,2.389a10.2,10.2,0,0,1-2.6,2.215c-.539,0-3.776-3.236-3.776-3.756a12.561,12.561,0,0,1,2.369-2.755l2.35-2.37,1.984,2.042A13.6,13.6,0,0,1,119.513-425.127Zm41.263,2.2c0,.1-3.622,3.814-8.033,8.226l-8.052,8.052-2.446-2.446-2.466-2.466,8.129-8.129,8.149-8.148,2.35,2.35A23.079,23.079,0,0,1,160.776-422.931Z" transform="translate(-69.357 0)" fill="#14181b" stroke="#000" stroke-width="1.5"/>
    <path id="Path_55" data-name="Path 55" d="M33.011-385.664a6.766,6.766,0,0,0-3.005,2.273c-1.271,1.811-1.194.366-1.194,25.178v22.539h-2.7c-3.005,0-3.756.212-3.968,1.079a16.416,16.416,0,0,0-.019,2.735,11.056,11.056,0,0,0,1.618,5.972,12.231,12.231,0,0,0,6.453,5.2l1.406.52h71.083l1.406-.52a12.231,12.231,0,0,0,6.453-5.2,11.281,11.281,0,0,0,1.637-6.087c.135-3.622.039-3.7-4.1-3.7h-2.793l-.039-22.693-.058-22.673-.5-1.079a6.978,6.978,0,0,0-2.909-3.179l-1.021-.559-4.912-.058c-4.777-.058-4.932-.058-5.3.347a1.434,1.434,0,0,0,.173,2.061c.52.443.6.443,4.643.443,4.373,0,4.854.077,5.741.925,1.175,1.1,1.1-.443,1.1,24v22.462l-10.98.039c-10.711.058-10.98.058-11.366.443a3.063,3.063,0,0,0-.559,1.329,3.094,3.094,0,0,1-1.58,2.331c-.636.366-1.059.385-10.383.443l-9.728.058-.848-.443a2.945,2.945,0,0,1-1.772-2.389,3.063,3.063,0,0,0-.559-1.329c-.385-.385-.655-.385-11.558-.443L31.7-335.675v-22.269c0-19.572.039-22.327.289-22.943a2.938,2.938,0,0,1,1.734-1.811c.693-.327,1.368-.366,7.089-.366h6.319l.462-.482a1.417,1.417,0,0,0,.1-2.023c-.366-.366-.636-.385-7.166-.366C35.265-385.934,33.57-385.857,33.011-385.664Zm19.456,53.823a6.092,6.092,0,0,0,2.89,3.044l1.1.539H77.838l1.1-.539a6.092,6.092,0,0,0,2.89-3.044l.212-.751h27.3v.424a12.362,12.362,0,0,1-.848,3.872,8.965,8.965,0,0,1-5.355,4.8c-1.1.328-2.639.347-35.965.347-37.738,0-35.676.058-37.545-1a8.912,8.912,0,0,1-4.566-7.147l-.135-1.291H52.256Z" transform="translate(0 -65.199)" fill="#14181b" stroke="#000" stroke-width="1.5"/>
  </g>
</svg>
