<svg xmlns="http://www.w3.org/2000/svg" width="84" height="84" viewBox="0 0 84 84">
  <g id="maintenance-_2_" transform="translate(-16 492.751)">
    <path id="Path_64" data-name="Path 64" d="M219.858-492.529a11.868,11.868,0,0,0-6.629,3.653,9.626,9.626,0,0,0-2.334,3.225,12.682,12.682,0,0,0-1.336,7c.071,3.225,0,3.4-2.067,5.453l-1.354,1.336-4.651-4.633-4.651-4.633-1.123-2.245L194.59-485.6l-4.883-2.709a34.432,34.432,0,0,0-5.382-2.709c-.731,0-3.314,2.584-3.314,3.3a37.913,37.913,0,0,0,2.709,5.381l2.709,4.9,2.227,1.123,2.245,1.123,4.633,4.651,4.633,4.651-1.336,1.354c-2.049,2.067-2.138,2.1-5.97,2.121-2.94.018-3.314.053-4.58.481a12.209,12.209,0,0,0-5.221,3.243,12.065,12.065,0,0,0-3.689,7.5c-.339,2.548.285,5.9,1.3,6.914.927.927,1.23.748,5.257-3.279l3.6-3.6,1.675.321,1.693.321.321,1.675.3,1.693-3.671,3.689c-4.045,4.063-4.134,4.205-3.172,5.186,1,1,4.384,1.622,6.9,1.283a12.065,12.065,0,0,0,7.5-3.689,12.209,12.209,0,0,0,3.243-5.221c.428-1.265.463-1.622.481-4.58,0-3.813.036-3.9,2.121-5.97l1.354-1.319.624.606a2.824,2.824,0,0,1,.624.766,5.554,5.554,0,0,1-.855,1.1,4.168,4.168,0,0,0-.642,5.2,4.466,4.466,0,0,0,4.918,1.853l.57-.2,4.651,4.615c4.972,4.972,5.4,5.292,7.645,5.738a7.135,7.135,0,0,0,6.166-1.978,7.135,7.135,0,0,0,1.978-6.166c-.445-2.245-.766-2.673-5.756-7.662l-4.633-4.669.214-.659a4.589,4.589,0,0,0,.125-1.6,4.233,4.233,0,0,0-7.413-2.334,2.43,2.43,0,0,1-.82.641,2.55,2.55,0,0,1-.8-.624l-.606-.624,1.319-1.354c2.067-2.085,2.156-2.121,5.97-2.121,2.994-.018,3.3-.053,4.633-.5a12.865,12.865,0,0,0,8.714-14.7c-.517-2.53-1.265-3.6-2.334-3.35a28.076,28.076,0,0,0-4.081,3.706l-3.6,3.582-1.675-.321-1.693-.321-.321-1.693-.321-1.675,3.6-3.6c4.027-4.027,4.205-4.33,3.279-5.257C226.576-492.529,222.692-493.1,219.858-492.529Zm3.706,2.709c.374.089.125.392-2.619,3.172-2.334,2.334-3.047,3.154-3.047,3.51,0,.481.962,5.382,1.158,5.9a1.241,1.241,0,0,0,.463.5,51.746,51.746,0,0,0,6.005,1.23c.339,0,1.194-.748,3.51-3.047,3.368-3.314,3.3-3.3,3.3-1.408a10.278,10.278,0,0,1-5.292,8.785,9.952,9.952,0,0,1-5.934,1.123c-2.495-.125-3.742.089-5.168.909-1,.57-12.117,11.6-12.866,12.759-1,1.568-1.247,2.744-1.123,5.382a10,10,0,0,1-1.1,6.023,10.278,10.278,0,0,1-8.785,5.292c-1.889,0-1.925.071,1.408-3.3,2.334-2.334,3.047-3.154,3.047-3.51a48.957,48.957,0,0,0-1.23-6.005,1.241,1.241,0,0,0-.5-.463c-.517-.2-5.417-1.158-5.9-1.158-.356,0-1.176.713-3.51,3.047-2.78,2.744-3.083,2.994-3.172,2.62-.374-1.354.178-4.223,1.158-6.059a10.37,10.37,0,0,1,6.486-4.883,10.839,10.839,0,0,1,3.457-.178c2.495.125,3.742-.089,5.168-.909a180.527,180.527,0,0,0,12.848-12.759c1.016-1.55,1.265-2.744,1.14-5.382a10.869,10.869,0,0,1,.16-3.546,10.37,10.37,0,0,1,4.883-6.486C219.359-489.66,222.193-490.194,223.565-489.82Zm-34.891,4.188,3.653,2.031,1,1.924.98,1.907,4.936,4.936,4.936,4.936-1.016,1.034-1.034,1.016-4.936-4.936-4.936-4.936-1.907-.98-1.924-1-2.1-3.8c-1.729-3.1-2.085-3.867-1.907-4.063.125-.143.3-.232.41-.178C184.932-487.7,186.661-486.755,188.674-485.632Zm24.021,26.284-1.034,1.016-.713-.695-.713-.695,1.016-1.034,1.034-1.034.713.713.713.713Zm7.965-2a1.34,1.34,0,0,1,.445,1.016c0,.517-.445,1.034-4.419,4.99-3.956,3.974-4.473,4.419-4.989,4.419a1.569,1.569,0,0,1-1.461-1.247c0-.731.552-1.39,4.687-5.488,3.689-3.671,4.223-4.134,4.74-4.134A1.367,1.367,0,0,1,220.66-461.344Zm10.122,14.434a4.651,4.651,0,0,1-.018,3.778,4.371,4.371,0,0,1-5.631,1.907c-.3-.16-2.53-2.263-4.954-4.669l-4.419-4.4,2.976-2.976,2.994-2.994,4.33,4.312A64.2,64.2,0,0,1,230.782-446.91Z" transform="translate(-135.166)"/>
    <path id="Path_65" data-name="Path 65" d="M27.713-175.554c-.37.356-.44.606-.44,1.426v.98H16.863l-.423.445-.44.428v21.063l.44.428.423.445h10.41v.98c0,.82.07,1.069.44,1.426l.423.445H40.5l.423-.445c.388-.374.44-.588.44-1.693v-1.247l1.251.642c2.624,1.336,2.5,1.319,15.465,1.319,12.541,0,12.964-.036,14.831-1,.528-.267,3.294-1.835,6.147-3.51s8.208-4.793,11.889-6.932c7.415-4.312,8.208-4.936,8.807-6.754a6.932,6.932,0,0,0-.229-4.366,5.565,5.565,0,0,0-7.415-2.691c-.44.214-3.8,2.156-7.468,4.295l-6.658,3.885-.845-.8a7.586,7.586,0,0,0-1.356-1.069c-.282-.143-5.46-1.6-11.519-3.261-13.721-3.742-12.611-3.617-18.706-2.067l-4.192,1.069v-1.515c0-1.354-.035-1.532-.44-1.925L40.5-176H28.136Zm10.832,13.81v11.4H30.091v-22.809h8.455Zm57.333-9.64a3.545,3.545,0,0,1,.934.927,2,2,0,0,1,.352,1.6,3.344,3.344,0,0,1-.44,1.515c-.264.356-4.051,2.673-12.559,7.645-6.711,3.92-12.576,7.288-13.017,7.484-.775.339-1.268.356-12.435.41-8.525.053-11.889,0-12.594-.16a16.49,16.49,0,0,1-2.853-1.158l-1.9-.962v-15.111l4.315-1.087a28.7,28.7,0,0,1,5.5-1.087c.969,0,3.135.535,12.1,2.958,6.024,1.622,11.167,3.1,11.467,3.261a2.661,2.661,0,0,1,1.321,2.406,2.6,2.6,0,0,1-2.624,2.78c-.44,0-4.474-1-9.335-2.317-4.72-1.265-8.684-2.317-8.842-2.317a1.624,1.624,0,0,0-.757.374,1.435,1.435,0,0,0-.106,2.031c.564.517,17.578,5.079,18.935,5.079a4.935,4.935,0,0,0,3.611-1.372,5.559,5.559,0,0,0,1.885-3.635l.141-1.123,3.17-1.853c9.423-5.506,11.308-6.593,11.625-6.682A3.3,3.3,0,0,1,95.878-171.385Zm-68.605,9.64v8.553H18.818V-170.3h8.455Z" transform="translate(0 -261.263)"/>
  </g>
</svg>
