<svg xmlns="http://www.w3.org/2000/svg" width="56" height="86" viewBox="0 0 56 86">
  <g id="place-localizer" transform="translate(-88.381 511.669)">
    <path id="Path_76" data-name="Path 76" d="M114.209-511.624a26.887,26.887,0,0,0-10.691,3.126A28.16,28.16,0,0,0,91.24-495.908a28.066,28.066,0,0,0-2.756,14.1c1.036,9.261,9.655,27.716,23.938,51.23,2.706,4.454,3.057,4.908,3.959,4.908.885,0,1.27-.454,3.725-4.488,14.282-23.43,23.136-42.356,24.171-51.65a28.066,28.066,0,0,0-2.756-14.1,28.2,28.2,0,0,0-20.63-15.413A40.348,40.348,0,0,0,114.209-511.624Zm7.083,3.933a24.691,24.691,0,0,1,18.943,18.573,26.372,26.372,0,0,1,.635,6.538c-.735,8.068-8.152,24.3-21.031,46.02-1.854,3.126-3.408,5.681-3.458,5.681s-1.6-2.555-3.458-5.664c-12.879-21.732-20.3-37.969-21.031-46.036a26.2,26.2,0,0,1,1.47-9.379,24.682,24.682,0,0,1,20.012-16.068A32.361,32.361,0,0,1,121.292-507.691Z" transform="translate(0 0)"/>
    <path id="Path_77" data-name="Path 77" d="M187.381-431.621a12.617,12.617,0,0,0-6.586,3.725,11.291,11.291,0,0,0-3.183,4.944,13.449,13.449,0,0,0-.3,6.993,13.231,13.231,0,0,0,9.245,9.583,10.128,10.128,0,0,0,3.81.457,10.128,10.128,0,0,0,3.81-.457,13.231,13.231,0,0,0,9.245-9.583,13.448,13.448,0,0,0-.3-6.993,11.291,11.291,0,0,0-3.183-4.944,12.34,12.34,0,0,0-6.654-3.725A19.1,19.1,0,0,0,187.381-431.621Zm5.689,3.589a9.946,9.946,0,0,1,6.857,6.739,11.654,11.654,0,0,1-.017,4.842,9.938,9.938,0,0,1-7.433,6.84,9.969,9.969,0,0,1-11.666-6.84,11.653,11.653,0,0,1-.017-4.842,9.943,9.943,0,0,1,8.3-7.027A11.108,11.108,0,0,1,193.07-428.032Z" transform="translate(-73.981 -66.445)"/>
  </g>
</svg>
