<svg xmlns="http://www.w3.org/2000/svg" width="83.578" height="83.526" viewBox="0 0 83.578 83.526">
  <g id="renewal" transform="translate(-0.125 511.977)">
    <path id="Path_47" data-name="Path 47" d="M37.991-511.8a46.369,46.369,0,0,0-10.37,2.335,46.661,46.661,0,0,0-11.5,6.434,55.628,55.628,0,0,0-7.071,7.071,42.958,42.958,0,0,0-4.622,7.414,36.688,36.688,0,0,0-3.021,8.165,39.894,39.894,0,0,0,.931,23.156c1.029,3.07,1.437,3.74,2.5,4.05a2.352,2.352,0,0,0,3.1-2.2,21.659,21.659,0,0,0-.882-3.233A35.089,35.089,0,0,1,6.9-481.77a37.072,37.072,0,0,1,18.927-21.572A36.777,36.777,0,0,1,61-501.709c1.747,1.029,2.6,1.649,1.911,1.388a2.7,2.7,0,0,0-1.878.686,2.474,2.474,0,0,0-.67,1.127,1.845,1.845,0,0,0,.065,1.47,2.9,2.9,0,0,0,.768,1.078,94.754,94.754,0,0,0,11.9,3.9,2.344,2.344,0,0,0,2.4-2.009c.131-.865-3.527-11.807-4.164-12.395a2.308,2.308,0,0,0-1.78-.784,2.532,2.532,0,0,0-2.172,3.495c.082.229.114.425.082.425a12.7,12.7,0,0,1-1.176-.784A42.687,42.687,0,0,0,37.991-511.8Z" transform="translate(0 0)" fill="#14181b"/>
    <path id="Path_48" data-name="Path 48" d="M122.274-375.657a2.342,2.342,0,0,0-.947.964c-.327.637-.327.931-.327,18.29s0,17.653.327,18.29a2.188,2.188,0,0,0,.98.98c.637.327.915.327,20.74.327s20.1,0,20.74-.327a2.188,2.188,0,0,0,.98-.98c.327-.637.327-.931.327-18.29s0-17.653-.327-18.29a2.188,2.188,0,0,0-.98-.98c-.637-.327-.915-.327-20.772-.327C123.286-375.984,122.862-375.984,122.274-375.657ZM135.7-364.732c0,6.075.016,6.418.327,7.022a2.578,2.578,0,0,0,2.123,1.306c.817,0,1.453-.425,3.233-2.172l1.666-1.666,1.682,1.666c1.764,1.747,2.4,2.172,3.217,2.172a2.578,2.578,0,0,0,2.123-1.306c.31-.6.327-.947.327-7.022V-371.1h9.8v29.395H125.9V-371.1h9.8Zm9.8-3.233v3.135l-.441-.425a3.3,3.3,0,0,0-2.009-.947,3.219,3.219,0,0,0-1.992.947l-.457.425V-371.1h4.9Z" transform="translate(-101.136 -113.772)" fill="#14181b"/>
    <path id="Path_49" data-name="Path 49" d="M119.148-360.659a2.375,2.375,0,0,0-1.306,2.025,19,19,0,0,0,.882,3.282,34.442,34.442,0,0,1,1.992,13.015,35.633,35.633,0,0,1-3.691,14.632A36.536,36.536,0,0,1,99.96-310.655a35.171,35.171,0,0,1-14.7,3.691,37.366,37.366,0,0,1-20.2-5.16c-1.747-1.029-2.727-1.715-2.2-1.535a2.915,2.915,0,0,0,2.058-.849,2.445,2.445,0,0,0-.163-3.348c-.637-.588-10.941-4.066-12.068-4.066a2.344,2.344,0,0,0-2.4,2.009c-.131.866,3.527,11.807,4.164,12.395a2.308,2.308,0,0,0,1.78.784A2.532,2.532,0,0,0,58.4-310.23c-.082-.229-.114-.425-.082-.425a10.17,10.17,0,0,1,1.094.751,44.674,44.674,0,0,0,18.829,7.512,56.687,56.687,0,0,0,10.778.1,42.23,42.23,0,0,0,20.331-8.427,56.111,56.111,0,0,0,7.12-6.957,47.61,47.61,0,0,0,6.679-11.823c.327-.9.882-2.727,1.225-4.083a39.823,39.823,0,0,0-.931-23.173c-.98-2.923-1.355-3.593-2.286-3.968A2.135,2.135,0,0,0,119.148-360.659Z" transform="translate(-41.964 -126.37)" fill="#14181b"/>
  </g>
</svg>
