<svg xmlns="http://www.w3.org/2000/svg" width="97.096" height="97.195" viewBox="0 0 97.096 97.195">
  <g id="rent_1" transform="translate(0.372 512.424)">
    <path id="Path_36" data-name="Path 36" d="M46.384-511.617a6.705,6.705,0,0,0-4.713,8l.282,1.033-.9.939c-.488.507-6.159,6.328-12.582,12.9l-11.7,11.981H10.441c-6.216,0-6.328.019-7.249.451A5.534,5.534,0,0,0,.6-473.872l-.413.77L.131-446.586c-.038,26.4-.038,26.516.338,27.549A4.514,4.514,0,0,0,1.8-417.16c1.746,1.559-2.648,1.427,46.365,1.427,49.482,0,44.75.169,46.5-1.6,1.728-1.709,1.6.789,1.54-29.295L96.147-473.1l-.413-.789a6.529,6.529,0,0,0-2.46-2.441c-.62-.3-1.333-.338-7.211-.394l-6.516-.056-11.68-11.962c-6.422-6.573-12.094-12.394-12.582-12.9l-.9-.939.282-1.033a6.761,6.761,0,0,0-2.948-7.23A6.946,6.946,0,0,0,46.384-511.617ZM50.1-507.2c.77.732.789.77.789,1.953,0,1.052-.075,1.3-.469,1.728a2.9,2.9,0,0,1-2.253,1.033,2.9,2.9,0,0,1-2.253-1.033c-.394-.432-.469-.676-.469-1.728,0-1.221.019-1.239.826-1.953a2.085,2.085,0,0,1,1.934-.732A2,2,0,0,1,50.1-507.2Zm-1.934,8.563a4.883,4.883,0,0,0,2.629-.488l1.052-.488,11.1,11.38,11.117,11.38-12.957.056c-7.117.019-18.76.019-25.877,0l-12.957-.056,11.117-11.38,11.1-11.38,1.052.488A4.883,4.883,0,0,0,48.168-498.641Zm43.473,25.858a1.35,1.35,0,0,1,.676.883c.131.451.169,8.939.131,26.065l-.056,25.389-.432.432-.432.432H4.807l-.432-.432-.432-.432-.056-25.389c-.038-17.164,0-25.614.131-26.065a1.623,1.623,0,0,1,.62-.883C5.277-473.083,90.965-473.083,91.641-472.783Z" fill="#14181b" stroke="#000" stroke-width="1"/>
    <path id="Path_37" data-name="Path 37" d="M78.16-220.535a15.5,15.5,0,0,0-1.915.263c-.188.056-.244,2.385-.244,10.7v10.61h2.629v-9.2H80.6c2.2,0,2.892.207,3.7,1.052.676.732.958,1.446,1.728,4.526,1,3.944.789,3.624,2.479,3.624,1.3,0,1.408-.038,1.3-.338-.075-.169-.488-1.709-.939-3.418-.432-1.709-.9-3.361-1.014-3.662a5.448,5.448,0,0,0-1.953-2.441l-.751-.432.676-.3a6.819,6.819,0,0,0,2.948-2.967,4.533,4.533,0,0,0,.338-2.573,5.571,5.571,0,0,0-.469-2.366C87.23-220.122,83.962-221.08,78.16-220.535Zm5.521,2.347a3.74,3.74,0,0,1,2.573,4.826,4.1,4.1,0,0,1-2.178,2.5,7.451,7.451,0,0,1-3.042.413l-2.4.075v-3.944c0-4.582-.282-4.094,2.46-4.15A9.907,9.907,0,0,1,83.681-218.188Z" transform="translate(-61.634 -236.492)" fill="#14181b" stroke="#000" stroke-width="1"/>
    <path id="Path_38" data-name="Path 38" d="M168-209.2v10.8h12.018v-2.253h-9.389l.038-3.906.056-3.887,4.188-.056,4.169-.038V-210.8h-8.45v-6.76h9.014V-220H168Z" transform="translate(-136.358 -237.046)" fill="#14181b" stroke="#000" stroke-width="1"/>
    <path id="Path_39" data-name="Path 39" d="M252-209.283v10.8h2.685l-.094-9.051-.113-9.033,1.127,2.178c.62,1.2,3.042,5.239,5.39,9l4.244,6.817,1.465.056,1.446.056v-21.614h-2.629l.019,6.141c0,3.4.075,7.38.169,8.882.075,1.5.131,2.742.094,2.779a8.88,8.88,0,0,1-.9-1.615c-1.127-2.2-2.591-4.638-6.573-10.929l-3.286-5.164-1.521-.056L252-220.1Z" transform="translate(-204.584 -236.965)" fill="#14181b" stroke="#000" stroke-width="1"/>
    <path id="Path_40" data-name="Path 40" d="M351-218.779v1.221h6.573V-198.4h2.817v-19.154h6.573V-220H351Z" transform="translate(-284.993 -237.046)" fill="#14181b" stroke="#000" stroke-width="1"/>
  </g>
</svg>
