<svg xmlns="http://www.w3.org/2000/svg" width="80" height="80" viewBox="0 0 80 80">
  <g id="return-box" transform="translate(0 511.719)">
    <path id="Path_66" data-name="Path 66" d="M9.306-511.622a1.629,1.629,0,0,0-.516.376c-.109.125-2.127,5.993-4.489,13.02L0-485.443v4.992c0,5.43.031,5.68.86,6.056a5.037,5.037,0,0,0,1.564.188H3.6l.031,13.614.047,13.614.438.423.422.438,19.253.078,19.237.078.454,1.361a18.6,18.6,0,0,0,4.6,7.417,18.831,18.831,0,0,0,9.869,5.242,24.67,24.67,0,0,0,7.116-.078,19.006,19.006,0,0,0,14.717-15.038,24.707,24.707,0,0,0-.078-7.12,18.891,18.891,0,0,0-9.884-12.941l-1.47-.751v-6.338h1.173a5.037,5.037,0,0,0,1.564-.188c.829-.376.86-.626.86-6.056v-4.992l-4.3-12.8c-2.784-8.278-4.41-12.926-4.614-13.129-.313-.313-.438-.313-26.869-.344C21.567-511.732,9.478-511.685,9.306-511.622Zm19.065,3.568c-.031.329-.375,4.882-.766,10.14-.391,5.242-.751,9.921-.8,10.359l-.078.829h-11.5c-6.319,0-11.48-.016-11.48-.047s7.054-21.063,7.273-21.673c.047-.141,1.939-.188,8.743-.188h8.664Zm12.043-.078c.047.282.407,4.882.8,10.218s.751,10.031.8,10.438l.094.751H29.841l.094-.751c.047-.407.407-5.1.8-10.438s.751-9.937.8-10.218l.078-.5h8.727Zm24.038,10.218c1.971,5.853,3.628,10.766,3.675,10.907.078.266-.532.282-11.417.282h-11.5l-.078-.829c-.047-.438-.407-5.117-.8-10.359-.391-5.258-.735-9.812-.782-10.14l-.078-.579,8.7.031,8.7.047ZM26.588-480.466v3.13H3.128V-483.6h23.46Zm15.64,0v3.13H29.716V-483.6H42.228Zm26.588,0v3.13H45.356V-483.6h23.46Zm-42.2,9.733c.063,3.912.172,4.413,1.173,5.3,1.3,1.142,2.143,1.1,5.537-.266l2.643-1.064,2.612,1.033c1.455.579,2.831,1.064,3.065,1.111a3.388,3.388,0,0,0,3.331-1.956c.235-.563.3-1.221.344-4.163l.063-3.474H65.218v5.352L64.17-469a30.2,30.2,0,0,0-6.225.094,18.831,18.831,0,0,0-9.869,5.242,18.261,18.261,0,0,0-5.49,12.5l-.094,1.987H6.725v-3.13H10.4c3.91,0,4.395-.078,4.77-.767a2.165,2.165,0,0,0,0-1.6c-.375-.689-.86-.767-4.77-.767H6.725v-18.778H26.556Zm15.609-.344c0,2.5-.047,3.161-.219,3.224a18.123,18.123,0,0,1-2.909-1.017,21.241,21.241,0,0,0-3.128-1.111,21.241,21.241,0,0,0-3.128,1.111,18.123,18.123,0,0,1-2.909,1.017c-.172-.063-.219-.72-.219-3.224v-3.13H42.228Zm22.756,5.461a15.8,15.8,0,0,1,11.589,11.83,18.316,18.316,0,0,1-.063,7.026,15.883,15.883,0,0,1-8.273,10.328,15.546,15.546,0,0,1-17.955-2.958,15.533,15.533,0,0,1-2.033-19.576,15.77,15.77,0,0,1,10.4-6.87A18.419,18.419,0,0,1,64.984-465.616Z" transform="translate(0 0)"/>
    <path id="Path_67" data-name="Path 67" d="M124.019-151.444a1.19,1.19,0,0,0-.519,1.117,1.19,1.19,0,0,0,.519,1.117,1.388,1.388,0,0,0,1.762.22,1.329,1.329,0,0,0,.787-1.337,1.329,1.329,0,0,0-.787-1.337A1.388,1.388,0,0,0,124.019-151.444Z" transform="translate(-104.189 -303.541)"/>
    <path id="Path_68" data-name="Path 68" d="M331.213-179.461a20.637,20.637,0,0,0-3.619,3.855c-.173.74.094,1.2,1.558,2.722,1.652,1.731,2.518,2.407,3.037,2.407a1.653,1.653,0,0,0,1.636-1.621,2.2,2.2,0,0,0-.393-.96l-.378-.566h3.9c4.044,0,4.563.063,5.413.692a3.98,3.98,0,0,1,1.212,2.47,3.694,3.694,0,0,1-.441,1.416,2.4,2.4,0,0,1-1.275,1.275l-.834.441h-14l-.535.535a1.265,1.265,0,0,0,0,2.077l.551.551,7.458-.047,7.443-.047,1.2-.6a6.1,6.1,0,0,0,3.462-4.673,6.315,6.315,0,0,0-3.619-6.656l-1.054-.5-4.437-.047-4.422-.047.378-.566a1.546,1.546,0,0,0-.425-2.345A1.5,1.5,0,0,0,331.213-179.461Z" transform="translate(-275.148 -279.963)"/>
  </g>
</svg>
