<svg xmlns="http://www.w3.org/2000/svg" width="93.818" height="94.132" viewBox="0 0 93.818 94.132">
  <g id="shopping-bag-_3_" transform="translate(-10.051 502.394)">
    <path id="Path_50" data-name="Path 50" d="M134.528-500.8a2.626,2.626,0,0,0-.373,1.195,5.276,5.276,0,0,1-4.629,4.648c-1.419.168-1.848.8-1.1,1.549a1.523,1.523,0,0,0,1.083.373c2.221.019,4.7,2.613,4.7,4.909,0,.747.28,1.064.971,1.064.6,0,.9-.448.9-1.363a5.752,5.752,0,0,1,.579-1.811,4.937,4.937,0,0,1,4.107-2.781c1.1-.037,1.68-.765,1.176-1.493a.991.991,0,0,0-.8-.392,5.6,5.6,0,0,1-3.267-1.325,4.753,4.753,0,0,1-1.717-3.1C135.947-500.836,135.237-501.489,134.528-500.8Zm2.707,6.421.467.261-1.288,1.251-1.288,1.269-1.269-1.251-1.251-1.232.691-.523a5.929,5.929,0,0,0,1.232-1.232l.523-.709.859.952A6.884,6.884,0,0,0,137.235-494.377Z" transform="translate(-95.009 0)" fill="#14181b" stroke="#000" stroke-width="2.5"/>
    <path id="Path_51" data-name="Path 51" d="M61.135-500.553a9.9,9.9,0,0,0-6.515,5.059,11.345,11.345,0,0,0-1.045,5.656v2.091l-2.744.075c-3.117.093-3.7.261-5,1.475-1.531,1.419-1.437.859-2.893,17.659-.728,8.288-1.363,15.326-1.4,15.643l-.093.56H38.959a12.291,12.291,0,0,0-6.384,1.381,16.837,16.837,0,0,0-6.608,5.992c-.373.579-1.885,3.136-3.36,5.693L19.919-434.6H18.388a3.492,3.492,0,0,0-2.445.56c-1.027.635-1.661,1.512-3.416,4.648-1.251,2.277-1.475,3.173-1.139,4.592.355,1.493,1.157,2.352,3.36,3.659,3.845,2.24,19.152,11.051,19.731,11.349a4.852,4.852,0,0,0,5.059-.709,20.044,20.044,0,0,0,2.259-3.379c1.325-2.277,1.587-2.893,1.661-3.733a4.375,4.375,0,0,0-.8-3.267L42-421.853l.84-1.419a9.883,9.883,0,0,1,3.341-3.808c1.96-1.269,2.931-1.456,7.485-1.456,7.915,0,11.48-.579,15.867-2.613,1.325-.6,27.366-15.531,30.838-17.659a3.793,3.793,0,0,0,1.811-1.792c.84-1.68.56-3.005-.971-4.667-2.333-2.5-5.749-3.117-9.875-1.736-.8.28-2.651,1.064-4.125,1.773-1.736.84-2.688,1.213-2.744,1.064-.037-.131-.616-6.7-1.307-14.6-.672-7.915-1.307-14.654-1.4-14.99a5.832,5.832,0,0,0-1.9-2.856c-1.195-.859-2.333-1.1-5.04-1.1H72.429V-490.3a11.484,11.484,0,0,0-.373-3.789A9.535,9.535,0,0,0,61.135-500.553Zm4.032,1.941a7.84,7.84,0,0,1,5.395,6.048,22.052,22.052,0,0,1,.187,2.912v1.941H55.4l.075-2.763c.056-2.632.093-2.8.653-3.995a8.068,8.068,0,0,1,5.152-4.256A9.1,9.1,0,0,1,65.167-498.611Zm-11.592,13.5a1.651,1.651,0,0,1-.653,1.381,1.682,1.682,0,0,0-.653,1.587,2.186,2.186,0,0,0,1.605,2.259,2.315,2.315,0,0,0,2.389-.747,1.954,1.954,0,0,0,.485-1.512,1.619,1.619,0,0,0-.653-1.568,1.514,1.514,0,0,1-.653-1.363v-.765H70.749v.691a1.718,1.718,0,0,1-.653,1.363,2.22,2.22,0,0,0-.56,2.688,2.326,2.326,0,0,0,4.387-.915,2.87,2.87,0,0,0-1.045-2.053c-.355-.224-.448-.448-.448-1.027v-.747h2.483c2,0,2.613.075,3.229.355a3.892,3.892,0,0,1,1.829,1.96c.093.28,2.725,29.438,2.725,30.278,0,.224-12.768,6.795-13.2,6.795-.093,0-.317-.392-.523-.9a6.859,6.859,0,0,0-2.987-3.024l-.933-.467-9.147-.112c-8.941-.093-9.184-.112-10.771-.56a14.3,14.3,0,0,1-1.736-.56c-.149-.149,2.483-30.315,2.725-31.211a4.217,4.217,0,0,1,1.941-2.3,11.1,11.1,0,0,1,3.043-.261h2.464Zm1.307,2.744c.205.224.187.336-.056.6-.3.28-.336.28-.635,0-.243-.261-.261-.373-.056-.6a.769.769,0,0,1,.373-.3A.769.769,0,0,1,54.882-482.371Zm17.136.336a.414.414,0,0,1-.429.392.47.47,0,0,1-.261-.84A.433.433,0,0,1,72.018-482.035ZM97.2-455.7c1.773.523,3.6,2.184,3.6,3.285,0,1.064-.373,1.456-2.595,2.763-5.973,3.509-27.888,16.091-28.859,16.595a29.674,29.674,0,0,1-6.253,2.128c-1.456.3-2.912.392-8.027.5-6.029.131-6.291.168-7.485.616a11.281,11.281,0,0,0-6.141,5.32c-.541.9-1.008,1.661-1.027,1.7-.131.149-18.854-10.827-18.8-11.013.093-.336,5.656-9.912,6.179-10.6a15.236,15.236,0,0,1,5.488-4.891c3.211-1.624,7.523-1.7,12.376-.224,1.531.448,1.549.448,10.136.448,6.813,0,8.736.056,9.221.243a4.225,4.225,0,0,1-.187,7.9c-.541.187-2.3.243-7.373.261-6.515,0-6.664,0-6.925.392a.862.862,0,0,0,.28,1.307,56.85,56.85,0,0,0,7.205.131c6.589-.056,6.888-.075,7.728-.467a6.01,6.01,0,0,0,3.547-4.107l.224-.952,10.752-5.32c5.9-2.931,10.995-5.413,11.294-5.525A9.515,9.515,0,0,1,97.2-455.7Zm-76.572,23.67c.616.355,5.152,2.987,10.08,5.824,10.584,6.1,10.267,5.9,10.659,6.664.616,1.176.411,2.035-1.12,4.7-1.363,2.389-1.848,3.024-2.669,3.453a3.039,3.039,0,0,1-2.52-.187c-1.493-.765-20.235-11.611-20.851-12.078a3.118,3.118,0,0,1-.9-1.139c-.467-1.1-.243-1.96,1.251-4.5.728-1.288,1.437-2.445,1.568-2.595C17.063-433.053,18.817-433.109,20.628-432.026Z" transform="translate(0 -0.283)" fill="#14181b" stroke="#000" stroke-width="2.5"/>
    <path id="Path_52" data-name="Path 52" d="M419.384-410.776a4.74,4.74,0,0,0-.392,1.344,5.327,5.327,0,0,1-3.1,4.051,4.178,4.178,0,0,1-1.4.355c-.821,0-1.493.448-1.493,1.008a.818.818,0,0,0,.933.859,5.392,5.392,0,0,1,3.36,1.419,5.416,5.416,0,0,1,1.773,3.341c.149,1.1.355,1.4.933,1.4s.765-.3.915-1.4a5.373,5.373,0,0,1,4.723-4.685c1.064-.149,1.363-.355,1.363-.933,0-.56-.653-1.008-1.493-1.008a5.379,5.379,0,0,1-3.117-1.512,6.277,6.277,0,0,1-1.475-3.155C420.765-410.7,420.56-411,420-411A1.019,1.019,0,0,0,419.384-410.776Zm1.829,7.989L420-401.573l-1.213-1.213L417.573-404l1.213-1.213,1.195-1.213,1.232,1.213,1.213,1.195Z" transform="translate(-326.758 -73.26)" fill="#14181b" stroke="#000" stroke-width="2.5"/>
    <path id="Path_53" data-name="Path 53" d="M61.16-367.515a3.288,3.288,0,0,0-.187,1.083,5.394,5.394,0,0,1-1.717,3.173,5.332,5.332,0,0,1-2.987,1.232c-.821,0-1.269.317-1.269.9,0,.653.3.971.933.971a5.45,5.45,0,0,1,3.3,1.363,5.338,5.338,0,0,1,1.755,3.267c.149,1.027.5,1.531,1.027,1.531.373,0,.821-.56.821-1.008a6.9,6.9,0,0,1,1.12-3.061,5.819,5.819,0,0,1,3.36-2.016c1.307-.168,1.493-.261,1.605-.765.168-.653-.467-1.176-1.4-1.176a5.477,5.477,0,0,1-4.2-3.061,8.494,8.494,0,0,1-.411-1.549c-.149-1.1-.355-1.363-1.027-1.363A.635.635,0,0,0,61.16-367.515Zm2.595,5.88.765.6-.747.579a7.074,7.074,0,0,0-1.232,1.251l-.485.691-1.288-1.307a16.725,16.725,0,0,1-1.251-1.363,7.789,7.789,0,0,0,1.923-1.773l.5-.747.541.728A7.815,7.815,0,0,0,63.755-361.635Z" transform="translate(-35.585 -108.233)" fill="#14181b" stroke="#000" stroke-width="2.5"/>
  </g>
</svg>
